<svg version="1.1" id="Layer_1" xmlns="http://www.w3.org/2000/svg" xmlns:xlink="http://www.w3.org/1999/xlink" x="0px" y="0px"
	 viewBox="0 0 1922.4 374.4" style="enable-background:new 0 0 1922.4 374.4;" xml:space="preserve">
	<style type="text/css">
		.st0{fill:#F2EDEB;}
		.st1{fill:#12130F;}
	</style>
	<g>
		<g>
			<polygon class="st0" points="559.82,6.05 411.73,6.05 411.73,368.35 659.46,368.35 659.46,246.07 559.82,246.07 		"/>
			<polygon class="st0" points="838.4,6.05 690.31,6.05 690.31,368.35 938.04,368.35 938.04,246.07 838.4,246.07 		"/>
			<rect x="968.89" y="6.05" class="st0" width="148.09" height="362.3"/>
			<path class="st0" d="M1738.45,0.21L1738.45,0.21c-100.05,0-181.15,81.1-181.15,181.15v186.99H1721V181.34h34.89v187.01h163.71
				V181.36C1919.6,81.31,1838.5,0.21,1738.45,0.21z"/>
			<g>
				<path class="st0" d="M189.79,0.21C86.52,0.21,2.8,83.93,2.8,187.2s83.72,186.99,186.99,186.99
					c103.27,0,186.99-83.72,186.99-186.99S293.07,0.21,189.79,0.21z M189.79,225.09c-20.92,0-37.89-16.96-37.89-37.89
					s16.96-37.89,37.89-37.89c20.92,0,37.89,16.96,37.89,37.89S210.72,225.09,189.79,225.09z"/>
			</g>
			<g>
				<path class="st0" d="M1339.16,0.21c-103.27,0-186.99,83.72-186.99,186.99s83.72,186.99,186.99,186.99
					c103.27,0,186.99-83.72,186.99-186.99S1442.43,0.21,1339.16,0.21z M1339.16,225.09c-20.92,0-37.89-16.96-37.89-37.89
					s16.96-37.89,37.89-37.89c20.92,0,37.89,16.96,37.89,37.89S1360.09,225.09,1339.16,225.09z"/>
			</g>
		</g>
	</g>
	<g>
		<path class="st0" d="M1891.92,10.28h-7.04V34h-4.96V10.28h-7.08V6h19.08V10.28z"/>
		<path class="st0" d="M1911.24,34V19c0-3.16,0.24-6.56,0.32-7.88h-0.16c-0.32,1.36-2.28,8.32-3.2,11.56l-0.44,1.68h-2.68l-0.48-1.68
			c-0.92-3.24-2.88-10.2-3.16-11.56h-0.2c0.08,1.32,0.32,4.72,0.32,7.88v15H1897V6h6.6l1.48,4.92c0.6,2.12,1.2,4.52,1.36,5.48h0.2
			c0.2-0.96,0.84-3.36,1.44-5.48l1.48-4.92h6.24v28H1911.24z"/>
	</g>
	<defs>
		<clipPath id="clip0_281_2579">
			<rect width="194.014" height="37.8178" fill="white"/>
		</clipPath>
	</defs>
</svg>
